<?xml version="1.0" encoding="UTF-8" standalone="no"?>
<!DOCTYPE svg PUBLIC "-//W3C//DTD SVG 1.1//EN" "http://www.w3.org/Graphics/SVG/1.1/DTD/svg11.dtd">
<svg width="100%" height="100%" viewBox="0 0 512 640" version="1.1" xmlns="http://www.w3.org/2000/svg" xmlns:xlink="http://www.w3.org/1999/xlink" xml:space="preserve" xmlns:serif="http://www.serif.com/" style="fill-rule:evenodd;clip-rule:evenodd;stroke-linejoin:round;stroke-miterlimit:2;">
    <g>
        <path d="M455.29,214.23C429.342,214.23 407.99,192.878 407.99,166.93C407.99,140.982 429.342,119.63 455.29,119.63C481.238,119.63 502.59,140.982 502.59,166.93C502.563,192.868 481.228,214.203 455.29,214.23ZM455.29,129.64C434.828,129.64 417.99,146.478 417.99,166.94C417.99,187.402 434.828,204.24 455.29,204.24C475.752,204.24 492.59,187.402 492.59,166.94C492.59,166.937 492.59,166.933 492.59,166.93C492.568,146.478 475.742,129.656 455.29,129.64Z" style="fill-rule:nonzero;"/>
        <path d="M200.84,434.93L198.42,434.93C189.951,434.841 181.57,433.204 173.69,430.1C171.33,429.1 169.08,427.99 166.92,426.89C162.85,424.83 159.01,422.89 154.92,422.22L154.61,422.17C143.61,420.36 131.34,418.06 124.37,413.63C104.85,401.26 99.37,384.91 96.84,362.54C94.36,340.54 102.45,319.85 118.49,307.21C125.021,302.06 132.494,298.231 140.49,295.94C142.11,295.48 143.76,295.1 145.39,294.79C150.328,293.984 155.327,293.616 160.33,293.69C165.33,293.63 170.16,293.57 174.72,292.53C179.543,291.298 184.275,289.731 188.88,287.84C192.96,286.28 197.19,284.66 201.59,283.45C209.908,281.151 218.603,280.543 227.16,281.66C253.74,285.13 274.82,305.49 282.16,334.8C284.77,345.19 283.41,358.8 281.81,368.37C280.045,378.914 276.016,388.952 270,397.79C254.607,420.917 228.621,434.871 200.84,434.93ZM218.84,291.08C213.922,291.089 209.028,291.762 204.29,293.08C200.36,294.16 196.54,295.62 192.5,297.16C187.461,299.218 182.281,300.912 177,302.23C171.41,303.51 165.87,303.58 160.52,303.65C156.102,303.573 151.685,303.881 147.32,304.57C145.96,304.83 144.6,305.15 143.26,305.57C136.516,307.469 130.21,310.673 124.7,315C111.4,325.48 104.7,342.81 106.8,361.35C109.1,381.76 113.44,394.78 129.74,405.12C135.58,408.82 149.55,411.12 156.26,412.23L156.56,412.28C162.15,413.2 166.87,415.59 171.43,417.9C173.53,418.96 175.51,419.96 177.53,420.8C184.286,423.425 191.462,424.804 198.71,424.87C223.78,425.62 247.36,413.37 261.71,392.16C266.937,384.512 270.448,375.823 272,366.69C273.18,359.61 274.81,346.37 272.51,337.2C266.07,311.58 248.64,294.51 225.89,291.54C223.539,291.232 221.171,291.078 218.8,291.08L218.84,291.08Z" style="fill-rule:nonzero;"/>
        <path d="M66.5,305.56C48.73,305.56 35.67,301.73 27.62,294.15C21.81,288.67 18.74,281.43 18.5,272.64C18.26,263.85 21.32,256.44 27.34,250.94C34.6,244.3 45.91,241.16 57.58,242.53C63.99,243.29 68.95,242.08 72.76,238.84C73.882,237.875 75.057,236.973 76.28,236.14C81.521,232.486 87.948,230.929 94.28,231.78C102.86,232.78 110.57,237.78 115.98,246.03C120.603,253.194 123.202,261.479 123.5,270C124.11,290.54 103.37,304.49 70.66,305.53C69.25,305.54 67.86,305.56 66.5,305.56ZM52.12,252.21C44.93,252.21 38.39,254.39 34.12,258.32C30.25,261.85 28.37,266.58 28.53,272.32C28.69,278.45 30.65,283.19 34.53,286.83C41,293.06 53.44,296 70.34,295.5C97,294.66 113.94,284.75 113.5,270.27C112.96,252.09 101.3,242.63 93.19,241.72C89.208,241.133 85.15,242.108 81.87,244.44C80.956,245.057 80.078,245.724 79.24,246.44C73.29,251.51 65.6,253.54 56.42,252.44C54.992,252.28 53.557,252.203 52.12,252.21Z" style="fill-rule:nonzero;"/>
        <path d="M174.56,262.91C173.05,262.904 171.545,262.74 170.07,262.42C164.88,261.33 159.79,257.58 156.45,252.42C153.3,247.53 152.1,241.96 153.16,237.15C155.53,226.42 167.87,220.26 177.34,221.91C187.11,223.62 193.59,231.73 193.46,242.09C193.37,248.9 190.46,255.24 185.69,259.09C182.533,261.609 178.599,262.96 174.56,262.91ZM174.15,231.62C169.61,231.62 163.91,234.81 162.93,239.28C162.44,241.48 163.16,244.36 164.86,246.98C166.75,249.92 169.54,252.09 172.14,252.64C174.661,253.334 177.368,252.812 179.45,251.23C181.87,249.29 183.45,245.73 183.45,241.94C183.45,237.68 181.45,232.76 175.61,231.74C175.128,231.659 174.639,231.619 174.15,231.62Z" style="fill-rule:nonzero;"/>
        <path d="M334.18,333.82C329.445,333.939 324.818,332.372 321.13,329.4C312.82,322.23 313.24,308.4 319.18,300.89C325.32,293.09 335.53,291.23 344.6,296.27C350.55,299.57 354.75,305.14 355.85,311.15C356.55,314.95 356.34,320.69 351.43,326.5C348,330.55 342.29,333.26 336.14,333.74C335.49,333.79 334.83,333.82 334.18,333.82ZM334.18,303.48C331.371,303.469 328.721,304.806 327.06,307.07C324.12,310.81 323.82,318.5 327.68,321.82C329.38,323.29 332.26,324.02 335.38,323.77C338.87,323.5 342.1,322.07 343.81,320.04C345.613,318.149 346.438,315.523 346.04,312.94C345.48,309.89 343.04,306.85 339.76,305.01C338.053,304.035 336.126,303.508 334.16,303.48L334.18,303.48Z" style="fill-rule:nonzero;"/>
        <path d="M88.18,445.82C83.445,445.939 78.818,444.372 75.13,441.4C66.82,434.23 67.24,420.4 73.18,412.89C79.32,405.09 89.53,403.23 98.6,408.27C104.6,411.57 108.75,417.14 109.85,423.15C110.55,426.95 110.34,432.69 105.43,438.5C102,442.55 96.29,445.26 90.14,445.74C89.49,445.79 88.83,445.82 88.18,445.82ZM88.18,415.48C85.35,415.45 82.674,416.788 81,419.07C78.06,422.81 77.76,430.5 81.62,433.82C83.32,435.29 86.2,436.02 89.32,435.77C92.81,435.5 96.04,434.07 97.75,432.04C99.553,430.149 100.378,427.523 99.98,424.94C99.42,421.89 96.98,418.85 93.7,417.01C92.011,416.045 90.105,415.518 88.16,415.48L88.18,415.48Z" style="fill-rule:nonzero;"/>
        <path d="M253.7,490.18C246.7,490.18 240.24,488.04 235.7,484.13C224.41,474.4 225.03,454.94 233.1,444.69C241.55,433.96 255.63,431.42 268.15,438.38C276.46,442.99 282.32,450.71 283.84,459.03C285.2,466.46 283.09,473.73 277.73,480.03C273,485.62 265.05,489.36 256.45,490.03C255.54,490.15 254.61,490.18 253.7,490.18ZM253.79,444.5C248.767,444.508 244.028,446.872 241,450.88C235.81,457.47 235.38,470.62 242.27,476.56C245.38,479.24 250.27,480.56 255.71,480.1C261.61,479.64 267.14,477.1 270.14,473.6C273.54,469.6 274.86,465.28 274.04,460.82C273.04,455.5 268.97,450.25 263.33,447.12C260.427,445.443 257.142,444.541 253.79,444.5Z" style="fill-rule:nonzero;"/>
        <path d="M263.18,163.82C258.445,163.939 253.818,162.372 250.13,159.4C241.82,152.23 242.24,138.4 248.18,130.89C254.32,123.09 264.53,121.23 273.6,126.27C279.55,129.57 283.75,135.14 284.85,141.15C285.55,144.95 285.34,150.69 280.43,156.5C277,160.55 271.29,163.26 265.14,163.74C264.49,163.79 263.83,163.82 263.18,163.82ZM263.18,133.48C260.371,133.469 257.721,134.806 256.06,137.07C253.12,140.81 252.82,148.5 256.68,151.82C258.38,153.29 261.26,154.02 264.38,153.82C267.87,153.55 271.1,152.12 272.81,150.09C274.613,148.199 275.438,145.573 275.04,142.99C274.48,139.94 272.04,136.9 268.76,135.06C267.057,134.067 265.13,133.524 263.16,133.48L263.18,133.48Z" style="fill-rule:nonzero;"/>
        <path d="M299.22,74.28C294.931,74.393 290.739,72.975 287.4,70.28C279.87,63.79 280.25,51.28 285.61,44.5C291.17,37.43 300.42,35.74 308.61,40.3C313.807,43.064 317.528,47.986 318.77,53.74C319.623,58.75 318.149,63.885 314.77,67.68C311.67,71.35 306.51,73.8 300.98,74.23C300.39,74.26 299.8,74.28 299.22,74.28ZM299.22,47.77C296.955,47.762 294.818,48.841 293.48,50.67C291.1,53.67 290.89,60.06 293.94,62.67C295.753,63.964 297.993,64.519 300.2,64.22C302.808,64.131 305.288,63.059 307.14,61.22C308.608,59.717 309.28,57.605 308.95,55.53C308.242,52.722 306.357,50.351 303.78,49.03C302.385,48.236 300.814,47.803 299.21,47.77L299.22,47.77Z" style="fill-rule:nonzero;"/>
        <path d="M148.37,212.6C147.63,212.6 146.85,212.6 146.03,212.49C138.03,211.75 129.03,207.73 120.77,201.16C107.14,190.36 106.91,172.61 120.18,154.85C135.95,133.72 151.47,136.95 161.72,143.38C169.536,148.167 174.788,156.235 176,165.32C177.095,172.812 174.761,180.413 169.65,186C167.77,187.786 166.335,189.989 165.46,192.43C165.1,193.67 164.79,194.97 164.46,196.24C164.13,197.51 163.84,198.88 163.46,200.17C161.94,205.62 158.68,212.6 148.37,212.6ZM146.37,148.6C138.63,148.6 132.76,154.77 128.23,160.84C114.07,179.84 122.67,189.84 127.03,193.33C133.81,198.71 140.9,201.98 147.03,202.54C151.7,202.97 152.7,201.84 153.96,197.45C154.27,196.38 154.55,195.21 154.84,193.97C155.13,192.73 155.5,191.18 155.92,189.72C156.92,186.19 159.08,182.72 162.49,179.15C165.546,175.73 166.909,171.111 166.2,166.58C165.342,160.467 161.772,155.055 156.49,151.86C153.487,149.818 149.96,148.683 146.33,148.59L146.37,148.6Z" style="fill-rule:nonzero;"/>
        <path d="M410.21,498.06C400.819,498.232 391.873,493.985 386.07,486.6C375.21,472.82 362.93,473.34 349.92,473.9C340.92,474.29 331.59,474.69 323.43,469.79C313.6,463.89 311.01,456.5 310.58,451.33C309.72,441.18 316.3,431.66 322.75,426.13C328.61,421.13 327.75,414.71 325.44,401.89C324.98,399.3 324.49,396.62 324.06,393.75C320.97,373.41 329.58,357.62 348.93,348.09C366.26,339.57 381.58,348.09 387.69,354.09C403.41,364.44 440.34,392.79 454.77,438.47C458.247,449.266 457.218,461.022 451.92,471.05C447.069,480.277 439.533,487.82 430.31,492.68C424.147,496.08 417.247,497.927 410.21,498.06ZM357.27,463.69C369.15,463.69 382.48,465.88 393.93,480.4C399.37,487.31 410.56,491.84 425.63,483.86C439.24,476.66 451.18,460.33 445.23,441.51C431.64,398.45 396.32,371.69 381.77,362.19C381.454,361.987 381.162,361.749 380.9,361.48C380.39,360.95 368.83,349.48 353.35,357.07C337.87,364.66 331.51,376.2 333.94,392.25C334.36,394.98 334.83,397.59 335.28,400.11C337.57,412.78 339.73,424.74 329.28,433.72C324.93,437.46 320.03,444.09 320.57,450.49C320.92,454.62 323.57,458.22 328.57,461.21C334.16,464.57 341.27,464.26 349.5,463.91C352,463.8 354.59,463.69 357.27,463.69Z" style="fill-rule:nonzero;"/>
        <path d="M416.36,408.79C409.07,408.79 401.24,406.33 395.62,398.61C385,384 392.75,371.41 398.34,366.79C399.224,366.089 400.32,365.707 401.448,365.707C404.191,365.707 406.448,367.964 406.448,370.707C406.448,372.148 405.825,373.521 404.74,374.47C403.142,375.965 401.902,377.8 401.11,379.84C399.55,383.97 400.41,388.18 403.71,392.73C411.81,403.86 427.46,396.3 427.61,396.22C428.299,395.881 429.057,395.704 429.825,395.704C432.576,395.704 434.841,397.969 434.841,400.72C434.841,402.628 433.752,404.377 432.04,405.22C427.138,407.545 421.785,408.764 416.36,408.79Z" style="fill-rule:nonzero;"/>
        <path d="M479.19,371.57C467.225,371.57 457.38,361.725 457.38,349.76C457.38,337.795 467.225,327.95 479.19,327.95C491.155,327.95 501,337.795 501,349.76C500.989,361.72 491.15,371.559 479.19,371.57ZM479.19,337.95C472.711,337.95 467.38,343.281 467.38,349.76C467.38,356.239 472.711,361.57 479.19,361.57C485.669,361.57 491,356.239 491,349.76C490.962,343.304 485.646,338.011 479.19,338L479.19,337.95Z" style="fill-rule:nonzero;"/>
        <path d="M472.05,317C471.755,316.998 471.461,316.971 471.17,316.92L468.17,316.36C465.761,315.967 463.974,313.866 463.974,311.425C463.974,308.682 466.231,306.425 468.974,306.425C469.333,306.425 469.69,306.464 470.04,306.54C471.04,306.74 472.04,306.91 472.95,307.07C475.346,307.475 477.118,309.57 477.118,312C477.118,314.743 474.861,317 472.118,317C472.102,317 472.086,317 472.07,317L472.05,317ZM449.52,312C449.095,312 448.672,311.946 448.26,311.84L445.31,311.05C443.197,310.42 441.738,308.463 441.738,306.258C441.738,303.515 443.996,301.258 446.738,301.258C447.137,301.258 447.533,301.306 447.92,301.4L450.78,302.16C452.978,302.73 454.525,304.729 454.525,307C454.525,309.743 452.268,312 449.525,312C449.524,312 449.522,312 449.52,312ZM427.45,305.38C426.899,305.377 426.352,305.286 425.83,305.11L422.95,304.11C421.009,303.376 419.718,301.508 419.718,299.433C419.718,296.69 421.975,294.433 424.718,294.433C425.245,294.433 425.769,294.516 426.27,294.68L429.07,295.68C431.086,296.371 432.449,298.279 432.449,300.41C432.449,303.153 430.193,305.41 427.45,305.41L427.45,305.38ZM406,297.11C405.312,297.112 404.631,296.973 404,296.7L401.2,295.46C399.33,294.69 398.103,292.859 398.103,290.836C398.103,288.093 400.36,285.836 403.103,285.836C403.86,285.836 404.608,286.008 405.29,286.34L407.99,287.53C409.806,288.325 410.984,290.128 410.984,292.11C410.984,294.851 408.731,297.107 405.99,297.11L406,297.11ZM385.32,287C384.47,287 383.633,286.783 382.89,286.37L380.22,284.86C378.672,283.968 377.716,282.311 377.716,280.525C377.716,277.78 379.975,275.521 382.72,275.521C383.598,275.521 384.46,275.752 385.22,276.19L387.77,277.63C389.354,278.511 390.34,280.187 390.34,282C390.34,284.743 388.083,287 385.34,287L385.32,287ZM365.88,274.7C364.832,274.7 363.811,274.371 362.96,273.76C362.12,273.15 361.29,272.55 360.47,271.93C359.212,270.986 358.47,269.503 358.47,267.93C358.47,265.187 360.727,262.93 363.47,262.93C364.552,262.93 365.605,263.281 366.47,263.93C367.24,264.51 368.03,265.09 368.81,265.66C370.069,266.604 370.811,268.088 370.811,269.661C370.811,272.374 368.603,274.617 365.89,274.66L365.88,274.7ZM348.23,259.98C346.93,259.987 345.678,259.48 344.75,258.57C344.003,257.85 343.263,257.12 342.53,256.38C341.462,255.432 340.85,254.07 340.85,252.642C340.85,249.899 343.107,247.642 345.85,247.642C347.306,247.642 348.691,248.277 349.64,249.38C350.33,250.07 351.01,250.75 351.71,251.38C352.681,252.321 353.23,253.618 353.23,254.97C353.23,257.713 350.973,259.97 348.23,259.97L348.23,259.98ZM333.16,242.6C331.552,242.6 330.039,241.825 329.1,240.52C328.487,239.68 327.887,238.83 327.3,237.97C326.752,237.149 326.46,236.183 326.46,235.196C326.46,232.453 328.717,230.196 331.46,230.196C333.086,230.196 334.615,230.989 335.55,232.32C336.09,233.11 336.64,233.89 337.2,234.67C337.817,235.522 338.149,236.548 338.149,237.6C338.149,240.324 335.923,242.572 333.2,242.6L333.16,242.6ZM321.62,222.78C319.66,222.783 317.871,221.634 317.06,219.85C316.63,218.9 316.21,217.94 315.81,216.97C315.505,216.312 315.347,215.595 315.347,214.869C315.347,212.126 317.604,209.869 320.347,209.869C322.418,209.869 324.283,211.155 325.02,213.09C325.39,213.97 325.78,214.84 326.17,215.71C326.466,216.36 326.619,217.066 326.619,217.78C326.619,220.522 324.362,222.779 321.62,222.78ZM314.35,201C312.02,200.995 309.988,199.363 309.48,197.09C309.25,196.09 309.04,195.09 308.83,194.03C308.768,193.714 308.737,193.392 308.737,193.07C308.737,190.325 310.995,188.067 313.74,188.067C316.124,188.067 318.193,189.771 318.65,192.11C318.83,193.05 319.03,193.98 319.24,194.91C319.324,195.277 319.367,195.652 319.367,196.029C319.367,198.364 317.73,200.404 315.45,200.91C315.088,200.984 314.719,201.014 314.35,201ZM311.41,178.23C308.745,178.232 306.522,176.103 306.41,173.44C306.41,172.44 306.33,171.36 306.31,170.33C306.309,170.298 306.309,170.267 306.309,170.235C306.309,167.492 308.567,165.234 311.31,165.234C314.018,165.234 316.259,167.433 316.31,170.14C316.31,171.087 316.34,172.047 316.4,173.02C316.518,175.76 314.36,178.112 311.62,178.23L311.41,178.23ZM312.65,155.34C312.385,155.336 312.121,155.313 311.86,155.27C309.154,154.838 307.281,152.257 307.71,149.55C307.87,148.55 308.05,147.48 308.24,146.46C308.681,144.104 310.758,142.38 313.155,142.38C315.898,142.38 318.155,144.637 318.155,147.38C318.155,147.689 318.127,147.997 318.07,148.3C317.9,149.23 317.74,150.17 317.58,151.12C317.216,153.552 315.109,155.373 312.65,155.38L312.65,155.34ZM318.77,133.25C318.122,133.25 317.48,133.125 316.88,132.88C315.002,132.114 313.769,130.278 313.769,128.25C313.769,127.602 313.895,126.96 314.14,126.36C314.54,125.36 314.95,124.42 315.37,123.46C316.171,121.657 317.967,120.489 319.94,120.489C322.683,120.489 324.941,122.747 324.941,125.49C324.941,126.189 324.794,126.881 324.51,127.52C324.13,128.39 323.76,129.26 323.4,130.14C322.646,132.033 320.807,133.284 318.77,133.29L318.77,133.25ZM329.86,113.19C327.119,113.187 324.866,110.931 324.866,108.19C324.866,107.146 325.193,106.129 325.8,105.28C326.42,104.43 327.04,103.58 327.67,102.75C328.618,101.499 330.1,100.762 331.67,100.762C334.423,100.762 336.688,103.027 336.688,105.78C336.688,106.874 336.33,107.938 335.67,108.81C335.09,109.56 334.53,110.33 333.97,111.11C333.03,112.445 331.493,113.237 329.86,113.23L329.86,113.19ZM345.16,96.07C342.419,96.068 340.164,93.811 340.164,91.07C340.164,89.667 340.755,88.327 341.79,87.38C342.56,86.67 343.34,85.98 344.12,85.3C345.03,84.51 346.195,84.074 347.4,84.074C350.143,84.074 352.401,86.332 352.401,89.075C352.401,90.522 351.773,91.901 350.68,92.85C349.96,93.48 349.24,94.11 348.53,94.76C347.616,95.616 346.412,96.098 345.16,96.11L345.16,96.07ZM363.46,82.16C360.753,82.11 358.553,79.869 358.553,77.161C358.553,75.49 359.39,73.926 360.78,73C361.66,72.44 362.54,71.89 363.42,71.36C364.175,70.928 365.031,70.701 365.901,70.701C368.644,70.701 370.901,72.958 370.901,75.701C370.901,77.403 370.032,78.991 368.6,79.91C367.79,80.41 366.96,80.91 366.14,81.44C365.337,81.942 364.407,82.206 363.46,82.2L363.46,82.16ZM383.76,71.32C381.028,71.304 378.788,69.052 378.788,66.32C378.788,64.347 379.956,62.55 381.76,61.75L384.6,60.51C385.217,60.249 385.88,60.114 386.55,60.114C389.293,60.114 391.551,62.372 391.551,65.115C391.551,67.119 390.346,68.938 388.5,69.72L385.83,70.88C385.184,71.19 384.477,71.354 383.76,71.36L383.76,71.32ZM405.42,63.46C402.681,63.455 400.429,61.199 400.429,58.46C400.429,56.217 401.938,54.236 404.1,53.64C406.1,53.09 407.24,52.84 407.28,52.83C407.665,52.737 408.059,52.69 408.454,52.69C411.197,52.69 413.454,54.947 413.454,57.69C413.454,60.059 411.771,62.118 409.45,62.59C407.129,63.062 408.45,62.81 406.75,63.28C406.318,63.412 405.871,63.485 405.42,63.5L405.42,63.46Z" style="fill-rule:nonzero;"/>
        <path d="M235.91,221.83C233.167,221.83 230.91,219.573 230.91,216.83L230.91,205.49C230.91,202.747 233.167,200.49 235.91,200.49C238.653,200.49 240.91,202.747 240.91,205.49L240.91,216.83C240.91,219.573 238.653,221.83 235.91,221.83Z" style="fill-rule:nonzero;"/>
        <path d="M235.89,260.51C233.147,260.51 230.89,258.253 230.89,255.51L230.89,244.17C230.89,241.427 233.147,239.17 235.89,239.17C238.633,239.17 240.89,241.427 240.89,244.17L240.89,255.51C240.89,258.253 238.633,260.51 235.89,260.51Z" style="fill-rule:nonzero;"/>
        <path d="M260.91,235.51L249.57,235.51C246.827,235.51 244.57,233.253 244.57,230.51C244.57,227.767 246.827,225.51 249.57,225.51L260.91,225.51C263.653,225.51 265.91,227.767 265.91,230.51C265.91,233.253 263.653,235.51 260.91,235.51Z" style="fill-rule:nonzero;"/>
        <path d="M222.23,235.49L210.89,235.49C208.147,235.49 205.89,233.233 205.89,230.49C205.89,227.747 208.147,225.49 210.89,225.49L222.23,225.49C224.973,225.49 227.23,227.747 227.23,230.49C227.23,233.233 224.973,235.49 222.23,235.49Z" style="fill-rule:nonzero;"/>
        <path d="M235.89,247.84C226.191,247.84 218.21,239.859 218.21,230.16C218.21,220.461 226.191,212.48 235.89,212.48C245.589,212.48 253.57,220.461 253.57,230.16C253.57,230.163 253.57,230.167 253.57,230.17C253.559,239.863 245.583,247.835 235.89,247.84ZM235.89,222.49C231.677,222.49 228.21,225.957 228.21,230.17C228.21,234.383 231.677,237.85 235.89,237.85C240.103,237.85 243.57,234.383 243.57,230.17C243.565,225.959 240.101,222.495 235.89,222.49Z" style="fill-rule:nonzero;"/>
        <path d="M64,341C61.257,341 59,338.743 59,336L59,335C59,332.257 61.257,330 64,330C66.743,330 69,332.257 69,335L69,336C69,338.743 66.743,341 64,341Z" style="fill-rule:nonzero;"/>
        <path d="M199,185C196.257,185 194,182.743 194,180L194,179C194,176.257 196.257,174 199,174C201.743,174 204,176.257 204,179L204,180C204,182.743 201.743,185 199,185Z" style="fill-rule:nonzero;"/>
        <path d="M249,114C246.257,114 244,111.743 244,109L244,108C244,105.257 246.257,103 249,103C251.743,103 254,105.257 254,108L254,109C254,111.743 251.743,114 249,114Z" style="fill-rule:nonzero;"/>
        <path d="M289,101C286.257,101 284,98.743 284,96L284,95C284,92.257 286.257,90 289,90C291.743,90 294,92.257 294,95L294,96C294,98.743 291.743,101 289,101Z" style="fill-rule:nonzero;"/>
        <path d="M256,53C253.257,53 251,50.743 251,48L251,47C251,44.257 253.257,42 256,42C258.743,42 261,44.257 261,47L261,48C261,50.743 258.743,53 256,53Z" style="fill-rule:nonzero;"/>
        <path d="M85,211C82.257,211 80,208.743 80,206L80,205C80,202.257 82.257,200 85,200C87.743,200 90,202.257 90,205L90,206C90,208.743 87.743,211 85,211Z" style="fill-rule:nonzero;"/>
        <path d="M273,201C270.257,201 268,198.743 268,196L268,195C268,192.257 270.257,190 273,190C275.743,190 278,192.257 278,195L278,196C278,198.743 275.743,201 273,201Z" style="fill-rule:nonzero;"/>
        <path d="M292,280C289.257,280 287,277.743 287,275L287,274C287,271.257 289.257,269 292,269C294.743,269 297,271.257 297,274L297,275C297,277.743 294.743,280 292,280Z" style="fill-rule:nonzero;"/>
        <path d="M208,268C205.257,268 203,265.743 203,263L203,262C203,259.257 205.257,257 208,257C210.743,257 213,259.257 213,262L213,263C213,265.743 210.743,268 208,268Z" style="fill-rule:nonzero;"/>
        <path d="M418,342C415.257,342 413,339.743 413,337L413,336C413,333.257 415.257,331 418,331C420.743,331 423,333.257 423,336L423,337C423,339.743 420.743,342 418,342Z" style="fill-rule:nonzero;"/>
        <path d="M304,403C301.257,403 299,400.743 299,398L299,397C299,394.257 301.257,392 304,392C306.743,392 309,394.257 309,397L309,398C309,400.743 306.743,403 304,403Z" style="fill-rule:nonzero;"/>
        <path d="M311,373C308.257,373 306,370.743 306,368L306,367C306,364.257 308.257,362 311,362C313.743,362 316,364.257 316,367L316,368C316,370.743 313.743,373 311,373Z" style="fill-rule:nonzero;"/>
        <path d="M224,151C221.257,151 219,148.743 219,146L219,145C219,142.257 221.257,140 224,140C226.743,140 229,142.257 229,145L229,146C229,148.743 226.743,151 224,151Z" style="fill-rule:nonzero;"/>
        <path d="M296,127C293.257,127 291,124.743 291,122L291,121C291,118.257 293.257,116 296,116C298.743,116 301,118.257 301,121L301,122C301,124.743 298.743,127 296,127Z" style="fill-rule:nonzero;"/>
        <path d="M107,130C104.257,130 102,127.743 102,125L102,124C102,121.257 104.257,119 107,119C109.743,119 112,121.257 112,124L112,125C112,127.743 109.743,130 107,130Z" style="fill-rule:nonzero;"/>
        <path d="M179,114C176.257,114 174,111.743 174,109L174,108C174,105.257 176.257,103 179,103C181.743,103 184,105.257 184,108L184,109C184,111.743 181.743,114 179,114Z" style="fill-rule:nonzero;"/>
        <path d="M353,58C350.257,58 348,55.743 348,53L348,52C348,49.257 350.257,47 353,47C355.743,47 358,49.257 358,52L358,53C358,55.743 355.743,58 353,58Z" style="fill-rule:nonzero;"/>
        <path d="M183,462C180.257,462 178,459.743 178,457L178,456C178,453.257 180.257,451 183,451C185.743,451 188,453.257 188,456L188,457C188,459.743 185.743,462 183,462Z" style="fill-rule:nonzero;"/>
        <path d="M208.36,95.58C197.999,95.577 189.476,87.051 189.476,76.69C189.476,66.327 198.003,57.8 208.366,57.8C218.728,57.8 227.256,66.327 227.256,76.69C227.256,81.699 225.263,86.509 221.72,90.05C218.183,93.599 213.371,95.591 208.36,95.58ZM208.36,67.81C203.486,67.814 199.478,71.826 199.478,76.7C199.478,81.577 203.491,85.59 208.368,85.59C213.245,85.59 217.258,81.577 217.258,76.7C217.258,74.341 216.319,72.077 214.65,70.41C212.984,68.74 210.718,67.804 208.36,67.81Z" style="fill-rule:nonzero;"/>
        <path d="M455.7,191.37C451.097,191.471 446.558,190.268 442.61,187.9C441.238,186.97 440.414,185.417 440.414,183.76C440.414,181.017 442.672,178.759 445.415,178.759C446.415,178.759 447.392,179.059 448.22,179.62C448.53,179.82 453.48,182.81 461.52,180.51C466.312,179.184 470.274,175.792 472.32,171.26C473.253,168.682 476.142,167.329 478.72,168.26C480.699,168.972 482.027,170.861 482.027,172.965C482.027,173.553 481.923,174.137 481.72,174.69C478.556,182.198 472.139,187.87 464.3,190.09C461.507,190.917 458.612,191.348 455.7,191.37Z" style="fill-rule:nonzero;"/>
        <path d="M170.18,402.7C166.227,402.772 162.324,401.806 158.86,399.9C154.32,397.329 150.947,393.098 149.45,388.1C149.368,387.737 149.326,387.367 149.326,386.995C149.326,384.252 151.583,381.995 154.326,381.995C156.521,381.995 158.471,383.44 159.11,385.54C159.951,387.969 161.656,390.006 163.9,391.26C167.28,393.11 171.9,393.18 177.77,391.48C179.57,390.82 187.39,387.48 184.77,379.71C184.612,379.216 184.531,378.701 184.531,378.182C184.531,375.439 186.788,373.182 189.531,373.182C191.65,373.182 193.55,374.53 194.25,376.53C198.62,389.53 188.68,398.28 180.93,400.96L180.72,401.03C177.305,402.088 173.755,402.651 170.18,402.7Z" style="fill-rule:nonzero;"/>
        <path d="M238.13,384.73C235.389,384.727 233.135,382.471 233.135,379.73C233.135,377.783 234.272,376.006 236.04,375.19C240.47,373.19 243.3,370.43 244.45,367.12C246.23,361.95 243.63,356.63 243.61,356.58C243.245,355.872 243.055,355.087 243.055,354.29C243.055,351.547 245.312,349.29 248.055,349.29C249.924,349.29 251.644,350.338 252.5,352C252.69,352.37 257.09,361.12 253.9,370.37C251.83,376.37 247.23,381.02 240.22,384.25C239.566,384.559 238.853,384.723 238.13,384.73Z" style="fill-rule:nonzero;"/>
        <path d="M129.24,338.23C129.24,337.69 128.33,324.93 143.7,317.6C157.04,311.23 166.21,317.43 169.2,321.6L161.06,327.42L161.12,327.5C160.71,326.97 156.79,322.43 148.01,326.62C139.23,330.81 139.19,336.84 139.22,337.52L139.22,337.41L129.24,338.23Z" style="fill-rule:nonzero;"/>
        <path d="M52.07,286.84C49.171,286.824 46.332,286.015 43.86,284.5C40.39,282.494 37.928,279.109 37.09,275.19C35.73,268.03 41.09,263.42 44.09,261.99L48.39,270.99L48.47,270.99C48.16,271.15 46.65,271.99 46.9,273.32C47.205,274.462 47.964,275.431 49,276C50.182,276.766 51.62,277.035 53,276.75C53.467,276.61 53.952,276.538 54.44,276.538C57.184,276.538 59.442,278.796 59.442,281.54C59.442,283.742 57.988,285.696 55.88,286.33C54.641,286.68 53.358,286.852 52.07,286.84Z" style="fill-rule:nonzero;"/>
        <path d="M348,396.69C345.335,396.692 343.112,394.563 343,391.9C343,391.07 342.77,383.63 348.31,378.59C352.12,375.12 357.41,373.84 364.03,374.78C366.474,375.139 368.303,377.257 368.303,379.727C368.303,382.47 366.046,384.727 363.303,384.727C363.075,384.727 362.846,384.711 362.62,384.68C359.12,384.18 356.62,384.61 355.07,385.96C352.96,387.84 352.99,391.45 352.99,391.48C353.108,394.213 350.962,396.561 348.23,396.69L348,396.69Z" style="fill-rule:nonzero;"/>
        <path d="M395.15,461C386.15,461 379.15,458.49 374.32,453.55C370.34,449.436 368.079,443.953 368,438.23C368.043,435.517 370.287,433.309 373,433.309C375.743,433.309 378.001,435.567 378.001,438.31C378.001,438.337 378,438.363 378,438.39C378,440.52 378.86,451 395.15,451C402.65,451 407.77,448.35 410.82,442.89C412.233,440.302 413.091,437.448 413.34,434.51C413.423,431.826 415.654,429.663 418.34,429.663C421.084,429.663 423.342,431.921 423.342,434.665C423.342,434.717 423.342,434.768 423.34,434.82C423.05,443.88 416.79,461 395.15,461Z" style="fill-rule:nonzero;"/>
        <path d="M145,187C142.257,187 140,184.743 140,182L140,181C140,178.257 142.257,176 145,176C147.743,176 150,178.257 150,181L150,182C150,184.743 147.743,187 145,187Z" style="fill-rule:nonzero;"/>
    </g>
</svg>
