<?xml version="1.0" encoding="UTF-8" standalone="no"?>
<!DOCTYPE svg PUBLIC "-//W3C//DTD SVG 1.1//EN" "http://www.w3.org/Graphics/SVG/1.1/DTD/svg11.dtd">
<svg width="100%" height="100%" viewBox="0 0 100 125" version="1.1" xmlns="http://www.w3.org/2000/svg" xmlns:xlink="http://www.w3.org/1999/xlink" xml:space="preserve" xmlns:serif="http://www.serif.com/" style="fill-rule:evenodd;clip-rule:evenodd;stroke-linejoin:round;stroke-miterlimit:2;">
    <path d="M75.4,75.6C78.5,75.6 81.6,74.6 84.2,72.5C87.1,70.2 88.8,66.8 89.2,63.1C89.6,59.4 88.5,55.8 86.1,53L72.7,36.7C72.3,36.3 71.7,36.2 71.3,36.6C70.9,37 70.8,37.6 71.2,38L84.5,54.2C86.5,56.6 87.4,59.7 87.1,62.9C86.8,66.1 85.3,68.9 82.8,70.9C80.4,72.9 77.3,73.8 74.1,73.5C70.9,73.2 68.1,71.7 66.1,69.2L38.5,35.6C38.1,35.2 37.5,35.1 37.1,35.5C36.7,35.9 36.6,36.5 37,36.9L64.7,70.6C67.4,73.9 71.4,75.6 75.4,75.6Z" style="fill-rule:nonzero;"/>
    <path d="M66.2,60.6C66,63 66.7,65.3 68.2,67.2C69.7,69.1 71.9,70.2 74.3,70.4L75.2,70.4C77.3,70.4 79.3,69.7 80.9,68.4C82.8,66.9 83.9,64.7 84.1,62.3C84.3,59.9 83.6,57.6 82.1,55.7C80.6,53.8 78.4,52.7 76,52.5C73.6,52.3 71.3,53 69.4,54.5C67.5,56 66.5,58.2 66.2,60.6ZM70.7,56C72,55 73.5,54.4 75.1,54.4L75.8,54.4C77.7,54.6 79.3,55.5 80.5,56.9C81.7,58.3 82.2,60.2 82.1,62C81.9,63.9 81,65.5 79.6,66.7C78.2,67.9 76.3,68.4 74.5,68.3C72.6,68.1 71,67.2 69.8,65.8C68.6,64.4 68.1,62.5 68.2,60.7C68.3,58.9 69.3,57.2 70.7,56Z" style="fill-rule:nonzero;"/>
    <path d="M36.8,26.7C36.4,27.1 36.3,27.7 36.7,28.1L59,55.4C59.2,55.6 59.5,55.8 59.8,55.8C60,55.8 60.2,55.7 60.4,55.6C60.8,55.2 60.9,54.6 60.5,54.2L38.2,26.9C37.8,26.5 37.2,26.4 36.8,26.7Z" style="fill-rule:nonzero;"/>
    <path d="M51.3,33.4C50.9,33.8 50.8,34.4 51.2,34.8L63.5,49.7C63.7,49.9 64,50.1 64.3,50.1C64.5,50.1 64.7,50 64.9,49.9C65.3,49.5 65.4,48.9 65,48.5L52.7,33.5C52.4,33.1 51.8,33 51.3,33.4Z" style="fill-rule:nonzero;"/>
    <path d="M53.3,21.7C52.9,21.3 52.3,21.2 51.9,21.6C51.5,22 51.4,22.6 51.8,23L71,46.4C71.2,46.6 71.5,46.8 71.8,46.8C72,46.8 72.2,46.7 72.4,46.6C72.8,46.2 72.9,45.6 72.5,45.2L53.3,21.7Z" style="fill-rule:nonzero;"/>
    <path d="M44.7,55.4L35.8,44.5C35.4,44.1 34.8,44 34.4,44.4C34,44.8 33.9,45.4 34.3,45.8L43.2,56.7C45.9,59.9 45.4,64.7 42.2,67.4C39,70.1 34.2,69.6 31.5,66.3L12.9,43.8C12.5,43.4 11.9,43.3 11.5,43.7C11.1,44.1 11,44.7 11.4,45.1L29.9,67.7C31.8,70 34.6,71.2 37.3,71.2C39.4,71.2 41.6,70.5 43.4,69C47.5,65.6 48.1,59.5 44.7,55.4Z" style="fill-rule:nonzero;"/>
    <path d="M36.8,66.5L37.3,66.5C38.5,66.5 39.7,66.1 40.6,65.3C41.7,64.4 42.3,63.2 42.5,61.8C42.6,60.4 42.2,59.1 41.3,58C39.5,55.8 36.2,55.5 34,57.3C31.8,59.1 31.5,62.4 33.3,64.6C34.2,65.7 35.4,66.3 36.8,66.5ZM34.1,61C34.2,60.1 34.6,59.4 35.3,58.8C35.9,58.3 36.6,58.1 37.3,58.1L37.6,58.1C38.5,58.2 39.2,58.6 39.8,59.3C40.3,60 40.6,60.8 40.5,61.6C40.4,62.5 40,63.2 39.3,63.8C38.6,64.3 37.8,64.6 37,64.5C36.1,64.4 35.4,64 34.8,63.3C34.3,62.7 34,61.8 34.1,61Z" style="fill-rule:nonzero;"/>
    <path d="M21.4,43.7C21,43.3 20.4,43.2 20,43.6C19.6,44 19.5,44.6 19.9,45L28.1,55C28.3,55.2 28.6,55.4 28.9,55.4C29.1,55.4 29.3,55.3 29.5,55.2C29.9,54.8 30,54.2 29.6,53.8L21.4,43.7Z" style="fill-rule:nonzero;"/>
    <path d="M17.1,31.3C16.7,31.7 16.6,32.3 17,32.7L29.9,48.4C30.1,48.6 30.4,48.8 30.7,48.8C30.9,48.8 31.1,48.7 31.3,48.6C31.7,48.2 31.8,47.6 31.4,47.2L18.5,31.5C18.1,31.1 17.5,31 17.1,31.3Z" style="fill-rule:nonzero;"/>
    <circle cx="54.3" cy="70.1" r="1.1"/>
    <circle cx="15.3" cy="22.8" r="1.1"/>
    <circle cx="50.7" cy="13.5" r="1.1"/>
    <circle cx="84.1" cy="35" r="1.1"/>
    <circle cx="81.5" cy="83.4" r="1.1"/>
    <circle cx="15.6" cy="85.4" r="1.1"/>
    <circle cx="38.7" cy="81" r="1.1"/>
    <path d="M17.5,74.6C17.5,76.7 19.2,78.4 21.3,78.4C23.4,78.4 25.1,76.7 25.1,74.6C25.1,72.5 23.4,70.8 21.3,70.8C19.2,70.8 17.5,72.5 17.5,74.6ZM23,74.6C23,75.6 22.2,76.4 21.2,76.4C20.2,76.4 19.4,75.6 19.4,74.6C19.4,73.6 20.2,72.8 21.2,72.8C22.2,72.8 23,73.6 23,74.6Z" style="fill-rule:nonzero;"/>
    <path d="M31.3,20.3C31.3,18.2 29.6,16.5 27.5,16.5C25.4,16.5 23.7,18.2 23.7,20.3C23.7,22.4 25.4,24.1 27.5,24.1C29.6,24.1 31.3,22.4 31.3,20.3ZM25.7,20.3C25.7,19.3 26.5,18.5 27.5,18.5C28.5,18.5 29.3,19.3 29.3,20.3C29.3,21.3 28.5,22.1 27.5,22.1C26.5,22.1 25.7,21.3 25.7,20.3Z" style="fill-rule:nonzero;"/>
    <path d="M76.5,23.8C78.6,23.8 80.3,22.1 80.3,20C80.3,17.9 78.6,16.2 76.5,16.2C74.4,16.2 72.7,17.9 72.7,20C72.7,22.1 74.4,23.8 76.5,23.8ZM76.5,18.3C77.5,18.3 78.3,19.1 78.3,20.1C78.3,21.1 77.5,21.9 76.5,21.9C75.5,21.9 74.7,21.1 74.7,20.1C74.7,19.1 75.5,18.3 76.5,18.3Z" style="fill-rule:nonzero;"/>
    <path d="M57.2,84.3C57.2,82.2 55.5,80.5 53.4,80.5C51.3,80.5 49.6,82.2 49.6,84.3C49.6,86.4 51.3,88.1 53.4,88.1C55.5,88.1 57.2,86.4 57.2,84.3ZM53.5,86.1C52.5,86.1 51.7,85.3 51.7,84.3C51.7,83.3 52.5,82.5 53.5,82.5C54.5,82.5 55.3,83.3 55.3,84.3C55.3,85.3 54.4,86.1 53.5,86.1Z" style="fill-rule:nonzero;"/>
</svg>
