<?xml version="1.0" encoding="UTF-8" standalone="no"?>
<!DOCTYPE svg PUBLIC "-//W3C//DTD SVG 1.1//EN" "http://www.w3.org/Graphics/SVG/1.1/DTD/svg11.dtd">
<svg width="100%" height="100%" viewBox="0 0 68 85" version="1.1" xmlns="http://www.w3.org/2000/svg" xmlns:xlink="http://www.w3.org/1999/xlink" xml:space="preserve" xmlns:serif="http://www.serif.com/" style="fill-rule:evenodd;clip-rule:evenodd;stroke-linejoin:round;stroke-miterlimit:2;">
    <g>
        <path d="M65.62,61.52C64.47,61.28 64.14,59.06 62.63,58.04C60.93,56.89 58.75,57.82 57.45,57.12C55.94,56.3 55.94,53.56 54.16,52.09C53.11,51.22 51.83,51.1 50.8,50.63C49.09,49.84 47.94,47.96 46.76,46.21C46.65,46.05 44.56,43.06 42.18,41.63C48.93,36.09 56.23,29.05 59.43,21.03C60.4,18.6 61.04,15.94 60.58,13.36C60.28,11.67 59.43,10.03 58.17,8.89C55.71,6.1 50.86,5.47 44.43,7.14C44.03,7.24 43.79,7.65 43.89,8.05C43.99,8.45 44.4,8.69 44.81,8.59C50.85,7.02 55.27,7.56 57.25,10.11C62.76,17.21 47.97,37.12 28.65,47.64C17.43,53.82 7.72,55.17 4.49,51.01C2.51,48.46 3.09,44.04 6.12,38.57C6.32,38.21 6.19,37.75 5.83,37.55C5.47,37.35 5.01,37.48 4.81,37.84C3.71,39.82 2.93,41.68 2.44,43.4C1.76,45.2 1.67,46.55 1.9,48.14C2.03,49.58 2.48,50.88 3.36,51.99C5.98,55.88 10.64,56.09 15.27,55.24C24.6,53.52 33.05,48.81 40.56,42.92C41.5,43.88 42.44,45.78 42.64,46.92C42.94,48.56 42.98,50.36 44.01,51.85C45.13,53.46 48.92,55.38 48.74,57C48.66,57.69 47.88,58.54 48.11,59.66C48.42,61.23 50.32,61.59 50.6,62.4C50.67,62.61 50.65,62.89 50.62,63.21C50.6,63.47 50.57,63.72 50.59,63.98C50.62,64.61 50.95,65.24 51.43,65.58C51.81,65.85 52.25,65.91 52.66,65.78C53.05,65.65 53.32,65.24 53.19,64.84C53.07,64.45 52.69,64.23 52.29,64.35C52.22,64.31 52.09,64.11 52.08,63.91C52.06,63.36 52.28,62.67 52.02,61.9C51.53,60.5 49.73,60.1 49.58,59.37C49.48,58.87 50.13,58.1 50.23,57.16C50.53,54.42 46.29,52.52 45.24,51C44.44,49.84 44.4,48.24 44.11,46.66C44.01,46.11 43.76,45.35 43.39,44.56C46.3,47.48 47.12,50.62 50.15,52.02C51.18,52.5 52.45,52.68 53.18,53.28C54.6,54.45 54.58,57.32 56.71,58.47C58.44,59.4 60.61,58.53 61.77,59.31C62.95,60.11 63.26,62.59 65.3,63.01C65.7,63.09 66.1,62.84 66.19,62.43C66.29,62.01 66.03,61.61 65.62,61.52Z" style="fill-rule:nonzero;"/>
        <path d="M13.16,14.34C12.93,14.14 12.79,13.8 12.63,13.4C11.97,11.77 11.34,11.34 9.43,11.1C9.13,11.06 8.83,11.03 8.55,10.95C6.83,10.5 5.84,8.55 5.05,6.75C4.88,6.37 4.44,6.2 4.06,6.37C3.68,6.54 3.51,6.98 3.68,7.36C4.35,8.89 5.61,11.73 8.17,12.4C9.12,12.65 10.24,12.57 10.74,13.05C11.23,13.52 11.33,14.73 12.17,15.47C13.25,16.41 14.78,16.06 15.54,16.1C17.37,16.11 19.96,17.79 20.77,19.5C20.79,19.54 20.82,19.58 20.85,19.62C21.36,21.74 22.23,24.06 24.19,25.26C23.34,26.39 22.86,27.75 22.8,29.19C20.62,31.15 14.05,37.23 15.85,39.54C16.02,39.76 16.25,39.92 16.52,40.02C17.04,40.34 17.7,40.52 18.22,40.51C19.31,40.49 21,39.8 21.97,39.3C29.58,35.38 36.33,30.67 41.91,24.19C43.16,22.74 44.31,21.08 43.62,19.24C43.62,18.86 43.53,18.53 43.32,18.25C42.86,17.66 42.03,17.48 40.85,17.72C38.74,18.14 35.28,19.9 31.33,22.55C29.31,22.12 27.05,22.58 25.24,24.14C21.24,22.13 23.05,14.88 18.92,11.81C18.19,11.27 17.37,10.93 16.57,10.61C13.66,9.43 13.67,8.94 12.75,5.84C12.18,3.9 11.3,2.71 10.05,2.21C9.66,2.07 9.22,2.25 9.07,2.64C8.91,3.02 9.1,3.46 9.48,3.62C10.67,4.1 11.14,5.69 11.47,6.89C12.33,9.99 13.03,10.81 15.99,12.02C18.07,12.86 19.18,13.47 20.07,16.43C16.34,13.45 14.21,15.25 13.16,14.34ZM17.29,37.67C18.04,36.11 20.13,33.69 22.96,31.06C23.3,32.6 24.07,33.95 25.39,35.04C20.05,38.41 17.41,38.93 17.02,38.63C17.03,38.63 16.95,38.4 17.29,37.67ZM41.79,19.11C42.04,19.11 42.13,19.16 42.12,19.15C42.33,19.63 41.13,22.12 36.37,26.55C35.72,25.12 34.67,23.96 33.09,23.17C34.91,22 39.63,19.11 41.79,19.11ZM26.82,24.81C27.27,25.44 28.06,25.83 28.83,25.68C29.65,25.51 30.27,24.74 30.38,23.92C32.5,24.11 34.35,25.39 35.15,27.57C34.7,27.11 33.86,27.04 33.37,27.48C32.88,27.93 32.89,28.75 33.31,29.25C31.18,31.02 29.03,32.62 26.75,34.14C23.42,31.89 23.44,27.02 26.82,24.81Z" style="fill-rule:nonzero;"/>
        <path d="M27.38,31.58C27.76,31.4 27.95,30.9 27.8,30.51C27.64,30.12 27.16,29.89 26.76,30.02L26.54,30.13C26.19,30.37 26.07,30.88 26.28,31.25C26.5,31.61 27,31.76 27.38,31.58Z" style="fill-rule:nonzero;"/>
        <path d="M12.7,48.22C15.04,48.85 17.53,48.19 19.82,47.39C32.59,42.93 43.78,34.08 51.04,22.67C52.25,20.77 53.38,18.43 52.49,16.36C52.03,15.3 51.64,14.2 50.85,13.51C49.16,11.62 45.09,11.38 40.36,12.91C37.32,13.9 35.03,15.35 32.35,17.05L33.19,18.3C35.75,16.68 37.96,15.27 40.83,14.35C44.97,13.01 48.67,13.12 49.83,14.62C53.14,18.88 41.63,33.06 27.56,41.18C19.54,45.85 12.61,47.4 10.71,44.95C9.19,42.99 11.02,39.67 12.03,37.44C13.23,34.76 15.39,32.02 18.61,29.06C18.92,28.78 18.94,28.31 18.65,28C18.37,27.7 17.89,27.68 17.59,27.96C13.19,32 11.7,34.6 10.32,37.56C9.25,39.84 7.66,43.26 9.44,45.75C10.13,46.92 11.36,47.86 12.7,48.22Z" style="fill-rule:nonzero;"/>
    </g>
</svg>
